<?xml version="1.0" encoding="UTF-8" standalone="no"?>
<!-- Created with Inkscape (http://www.inkscape.org/) -->

<svg
   xmlns:dc="http://purl.org/dc/elements/1.1/"
   xmlns:cc="http://creativecommons.org/ns#"
   xmlns:rdf="http://www.w3.org/1999/02/22-rdf-syntax-ns#"
   xmlns:svg="http://www.w3.org/2000/svg"
   xmlns="http://www.w3.org/2000/svg"
   xmlns:sodipodi="http://sodipodi.sourceforge.net/DTD/sodipodi-0.dtd"
   xmlns:inkscape="http://www.inkscape.org/namespaces/inkscape"
   width="117.00365mm"
   height="117.00365mm"
   viewBox="0 0 414.57985 414.57985"
   id="svg2"
   version="1.1"
   inkscape:version="0.91 r13725"
   sodipodi:docname="icon.svg"
   inkscape:export-filename="/home/u5376227/Dropbox/PhD/git/paramagpy/icon.png"
   inkscape:export-xdpi="90"
   inkscape:export-ydpi="90">
  <defs
     id="defs4">
    <clipPath
       clipPathUnits="userSpaceOnUse"
       id="clipPath4347">
      <rect
         style="color:#000000;clip-rule:nonzero;display:inline;overflow:visible;visibility:visible;opacity:1;isolation:auto;mix-blend-mode:normal;color-interpolation:sRGB;color-interpolation-filters:linearRGB;solid-color:#000000;solid-opacity:1;fill:#000000;fill-opacity:1;fill-rule:nonzero;stroke:#000000;stroke-width:7.58269072;stroke-linecap:butt;stroke-linejoin:miter;stroke-miterlimit:4;stroke-dasharray:none;stroke-dashoffset:0;stroke-opacity:1;color-rendering:auto;image-rendering:auto;shape-rendering:auto;text-rendering:auto;enable-background:accumulate"
         id="rect4349"
         width="414.57986"
         height="414.57986"
         x="82.623848"
         y="331.91476" />
    </clipPath>
  </defs>
  <sodipodi:namedview
     id="base"
     pagecolor="#ffffff"
     bordercolor="#666666"
     borderopacity="1.0"
     inkscape:pageopacity="0.0"
     inkscape:pageshadow="2"
     inkscape:zoom="0.98994949"
     inkscape:cx="202.49671"
     inkscape:cy="166.90077"
     inkscape:document-units="px"
     inkscape:current-layer="layer1"
     showgrid="false"
     inkscape:snap-nodes="false"
     inkscape:window-width="1855"
     inkscape:window-height="1056"
     inkscape:window-x="1145"
     inkscape:window-y="543"
     inkscape:window-maximized="1"
     fit-margin-top="0"
     fit-margin-left="0"
     fit-margin-right="0"
     fit-margin-bottom="0" />
  <metadata
     id="metadata7">
    <rdf:RDF>
      <cc:Work
         rdf:about="">
        <dc:format>image/svg+xml</dc:format>
        <dc:type
           rdf:resource="http://purl.org/dc/dcmitype/StillImage" />
        <dc:title></dc:title>
      </cc:Work>
    </rdf:RDF>
  </metadata>
  <g
     inkscape:label="Layer 1"
     inkscape:groupmode="layer"
     id="layer1"
     transform="translate(-137.17208,-97.559374)">
    <g
       id="g4318"
       clip-path="url(#clipPath4347)"
       transform="translate(54.548237,-234.35539)">
      <path
         sodipodi:nodetypes="ccsccsccsccscscscscscscsccsccsccsccc"
         inkscape:connector-curvature="0"
         id="path4190"
         d="m 201.79677,530.11542 c -6.23807,1.13419 -173.531711,48.20325 -173.531711,48.20325 0,0 17.960516,17.24912 29.489048,20.4155 21.013101,5.77136 65.216163,-4.53679 65.216163,-4.53679 l -60.679385,31.75744 c 0,0 26.396554,16.82357 41.398095,19.8484 11.31713,2.28193 34.59291,-1.70129 34.59291,-1.70129 l -27.78775,28.35486 c 0,0 22.67434,8.82283 34.59292,10.77484 8.21019,1.34465 24.95227,0.5671 24.95227,0.5671 l -17.01291,34.02582 c 0,0 19.89854,9.33803 30.62325,10.20775 5.91631,0.47979 17.58001,-2.83548 17.58001,-2.83548 0,0 3.54981,21.90926 11.90904,27.22066 6.06497,3.85365 21.54968,-0.5671 21.54968,-0.5671 0,0 6.37919,7.17674 10.77485,7.93936 3.88902,0.67473 11.34195,-3.40258 11.34195,-3.40258 0,0 9.45193,12.84276 16.4458,13.04323 6.23838,0.17883 15.31163,-10.77485 15.31163,-10.77485 0,0 11.79203,12.8973 19.2813,11.90904 8.75016,-1.15464 18.1471,-19.28129 18.1471,-19.28129 0,0 13.04128,15.87871 22.1168,15.87871 9.07552,0 22.11678,-15.87871 22.11678,-15.87871 0,0 22.28566,7.47745 32.32453,3.40258 2.73598,-1.11056 5.67097,-6.80517 5.67097,-6.80517 l -14.74452,-43.66647 c 0,0 16.78131,29.97433 31.75744,34.02581 9.52537,2.5769 28.35486,-8.50644 28.35486,-8.50644 l -25.51938,-53.87423 c 0,0 33.15504,22.58586 51.03874,19.2813 4.47673,-0.82721 10.20775,-9.07355 10.20775,-9.07355 l -24.38517,-31.75744 c 0,0 39.43157,13.96113 57.2768,6.80517 9.09814,-3.64837 18.71421,-22.68389 18.71421,-22.68389 L 330.52782,542.59155 Z"
         style="fill:#333333;fill-opacity:1;fill-rule:evenodd;stroke:#000000;stroke-width:0.79393595px;stroke-linecap:butt;stroke-linejoin:miter;stroke-opacity:1" />
      <path
         sodipodi:nodetypes="ccscsccsscscscscscscscscscscscccc"
         inkscape:connector-curvature="0"
         id="path4150"
         d="m 217.68245,550.70352 -107.20358,18.18977 c 0,0 2.85221,18.74171 9.2884,24.76906 5.21306,4.88191 20.51188,6.19227 20.51188,6.19227 0,0 -5.0267,11.99092 -1.93508,16.6417 4.25519,6.40116 17.80276,19.35083 17.80276,19.35083 l 20.12485,-5.41823 c 0,0 -20.84018,15.5997 -20.89889,18.18978 -0.13566,5.9846 28.09711,14.52275 41.02376,20.89888 2.86216,1.41179 9.28839,-2.32209 9.28839,-2.32209 0,0 -17.70203,13.96897 -17.80276,18.57679 -0.14007,6.40742 58.82651,1.54807 58.82651,1.54807 0,0 -18.02349,21.74271 -16.64171,27.09115 1.01521,3.92957 39.08867,-5.03121 39.08867,-5.03121 0,0 -3.16895,8.03863 -0.38702,9.67541 11.46797,6.74731 22.83398,-7.74033 22.83398,-7.74033 0,0 -3.86622,7.17216 -1.54807,9.2884 4.13654,3.77624 16.2547,-4.25719 16.2547,-4.25719 0,0 -2.49041,7.15318 0,8.51437 7.12802,3.89596 20.51187,-13.15856 20.51187,-13.15856 0,0 14.21134,11.30239 20.12486,5.80525 3.72834,-3.46581 1.16105,-15.48067 1.16105,-15.48067 0,0 27.68306,11.5475 37.15359,3.48315 2.95316,-2.51467 0.77403,-11.61049 0.77403,-11.61049 0,0 19.26228,-0.24393 26.31713,-5.80525 4.16859,-3.28609 6.96629,-14.31961 6.96629,-14.31961 0,0 15.6141,-0.416 21.67293,-4.64419 4.75475,-3.31815 9.28839,-14.70663 9.28839,-14.70663 0,0 12.62172,-6.21539 15.86768,-11.99752 3.17327,-5.65264 1.93508,-19.35083 1.93508,-19.35083 l -75.08119,-33.28342 -55.34337,-25.93011 z"
         style="fill:#e6e6e6;fill-opacity:1;fill-rule:evenodd;stroke:#000000;stroke-width:0.76625359px;stroke-linecap:butt;stroke-linejoin:miter;stroke-opacity:1" />
      <path
         sodipodi:nodetypes="aascascsccscsscssacscacacacaacacacaaaaasssssaaaaaaaaaaaaaaaaaaaaaasaa"
         inkscape:connector-curvature="0"
         id="path4173"
         d="m -40.406102,339.19451 c -24.58628,-0.40425 -49.326113,4.94521 -73.741138,2.0203 -38.76596,-4.64415 -119.1652,-41.02693 -113.01453,-30.77375 2.70058,4.50188 33.21248,29.7636 33.21248,29.7636 0,0 -39.70892,-19.03537 -58.58885,-30.30458 -22.05355,-13.16351 -67.38206,-49.74294 -63.63961,-43.43656 6.87081,11.57797 38.3858,44.44672 38.3858,44.44672 0,0 -79.52176,-50.92722 -77.54715,-47.4159 5.42414,9.64542 47.20233,44.75309 47.20233,44.75309 l -63.41554,-38.56963 c 0,0 7.27299,17.94322 63.92392,50.19814 18.12614,10.32034 55.32485,29.23626 55.32485,29.23626 0,0 -110.81923,-31.84192 -108.37168,-25.30458 4.99653,13.34561 91.22865,36.48909 113.72882,43.31402 12.33849,3.7426 36.71212,12.18311 36.71212,12.18311 0,0 -111.97087,-14.89579 -110.51453,-7.84664 1.43026,6.92296 93.12275,23.43221 128.81983,25.61096 7.40166,0.45176 6.42647,8.41864 11.11167,10.31073 7.96311,3.21586 25.7589,0.50508 25.7589,0.50508 0,0 0.33597,7.07197 2.77791,9.09138 7.24264,5.98943 28.03174,3.03045 28.03174,3.03045 0,0 3.50214,5.74726 6.31345,7.32361 4.98531,2.79534 16.92006,2.77792 16.92006,2.77792 0,0 -7.45558,11.26576 -4.29315,15.65736 5.369971,7.45717 27.526654,1.51523 27.526654,1.51523 0,0 -0.18054,7.9505 2.272843,10.6066 5.186361,5.6149 21.970818,6.56599 21.970818,6.56599 0,0 2.668701,4.23175 4.798224,5.30331 8.537321,4.29591 19.300665,0.32142 28.53681,2.77791 C -13.06636,474.43275 0,481.62602 0,481.62602 c 0,0 7.5599256,21.90348 17.172593,25.25381 10.659922,3.71533 32.324882,-10.10153 32.324882,-10.10153 0,0 -4.969439,11.37244 -1.572151,15.14178 8.466373,9.39355 37.937642,0.0105 37.937642,0.0105 0,0 9.642874,25.90637 21.213204,29.29443 9.72134,2.84664 18.34224,-13.05173 28.28427,-11.11168 9.11681,1.77902 10.97009,18.17623 20.20305,19.1929 7.80635,0.85958 12.42069,-11.06687 20.20305,-12.12183 6.23339,-0.84498 13.73476,0.60277 18.18275,5.05076 8.89597,8.89597 2.35649,32.02789 10.10152,36.36549 7.25392,4.06256 12.83042,6.25722 25.06999,11.39703 3.75804,1.57813 -4.0726,-28.10704 4.04061,-22.50871 5.89471,4.0675 12.74617,31.2686 40.58993,38.3858 17.64351,4.5099 46.46801,0.45856 54.54824,-3.03046 8.24862,-3.56173 -11.65438,-19.23269 -6.06092,-26.26396 4.19248,-5.27016 15.14815,-4.44966 20.20305,0 4.93134,4.3409 -3.64815,17.23448 2.5,19.55003 7.78658,2.93264 14.89883,-9.12487 18.71321,-16.51958 2.94907,-5.71718 -4.14641,-17.36126 2.0203,-19.19289 6.65429,-1.97645 7.07548,12.77058 13.13198,16.16244 4.44575,2.48978 10.32496,0.38918 15.15229,2.0203 10.28742,3.47605 17.54617,17.7771 28.28427,16.16244 14.60539,-2.19618 15.56288,-31.41781 30.30458,-32.32488 5.24977,-0.32302 6.91727,9.34194 12.12183,10.10153 2.53748,0.37034 4.50703,-2.98955 7.07107,-3.03046 8.31525,-0.13266 15.30078,11.58793 23.23351,9.09137 2.31611,-0.72892 1.7245,-5.33199 4.04061,-6.06091 7.93273,-2.49656 14.92087,9.33841 23.23351,9.09137 4.81893,-0.14321 8.48756,-4.76787 13.13198,-6.06092 5.87478,-1.63559 12.33422,-0.29315 18.18274,-2.0203 7.22095,-2.13245 12.75228,-9.01743 20.20306,-10.10153 5.75208,-0.83694 11.36354,3.23475 17.17259,3.03046 2.77493,-0.0976 5.30963,-1.85294 8.08122,-2.0203 5.41953,-0.32726 11.96035,5.45846 16.16244,2.0203 33.05903,-27.04897 38.50974,-96.34279 9.59645,-127.7843 -12.99204,-14.12808 -38.66309,2.75002 -57.5787,-0.50507 -25.44857,-4.3793 -48.50394,-17.82881 -73.23606,-25.25381 C 359.87563,372.67988 216.75902,361.63721 76.771593,346.26558 37.875106,341.99446 -1.2811061,339.83781 -40.406102,339.19451 Z"
         style="fill:#1a1a1a;fill-rule:evenodd;stroke:#000000;stroke-width:1px;stroke-linecap:butt;stroke-linejoin:miter;stroke-opacity:1" />
      <path
         sodipodi:nodetypes="ccsccscscsssssscccssssssscc"
         inkscape:connector-curvature="0"
         id="path4167"
         d="m 105.56094,352.83157 88.38835,38.38579 c 0,0 -2.23284,19.26091 0.50508,28.28427 2.44075,8.044 13.63705,21.21321 13.63705,21.21321 l 0,21.2132 c 0,0 -7.21689,2.02573 -8.58629,5.05076 -4.80683,10.6184 6.56599,34.34519 6.56599,34.34519 0,0 7.86276,62.51352 15.15229,65.65992 9.68405,4.17996 28.78935,-13.13199 28.78935,-13.13199 0,0 -5.68663,-67.99035 1.01015,-76.26651 9.66846,-11.94869 61.68377,0.6928 66.16499,8.58629 1.78591,3.14581 -9.60137,24.77715 -10.6066,38.17659 -1.19201,15.88907 1.44025,39.94892 5.55584,48.19146 0.94122,1.88504 35.69999,-7.82298 42.93148,-22.22336 6.26245,-12.4707 11.75233,-52.95951 21.2132,-78.28682 5.95492,-15.94166 22.22336,-45.96194 22.22336,-45.96194 l 78.28682,-9.59645 -1.51523,-11.11168 c 0,0 -17.91191,3.29501 -26.76904,2.0203 -16.03229,-2.30735 -29.7977,-13.03145 -45.45686,-17.17259 -11.53326,-3.05002 -23.84806,-2.40925 -35.35534,-5.55584 -23.76328,-6.49791 -44.37721,-23.30098 -68.69038,-27.27412 -18.47011,-3.0183 -37.35301,3.44758 -56.06346,3.03046 -15.39157,-0.34313 -30.58954,-3.7045 -45.96194,-4.54569 -15.63488,-0.85555 -31.4569,1.60678 -46.9721,-0.50507 -13.63649,-1.85613 -39.90102,-10.6066 -39.90102,-10.6066 z"
         style="fill:#333333;fill-rule:evenodd;stroke:#000000;stroke-width:1px;stroke-linecap:butt;stroke-linejoin:miter;stroke-opacity:1" />
      <path
         sodipodi:nodetypes="sssssssss"
         inkscape:connector-curvature="0"
         id="path4163"
         d="m 247.85714,450.93363 c -9.65668,-3.69082 -19.56041,-8.1405 -24.64285,-17.14285 -6.63014,-11.74372 -6.95376,-29.30886 -0.35715,-41.07144 12.78785,-22.80233 41.04711,-32.29129 67.14286,-30.71428 26.98114,1.63051 56.88953,12.37009 72.85715,35 7.77509,11.01915 12.97816,24.27918 8.92856,37.14286 -3.05951,9.71863 -13.00198,20.1421 -22.14285,24.64286 -6.12141,3.01405 -14.96263,2.1828 -21.78572,2.14285 -26.60875,-0.15579 -55.14438,-0.5001 -80,-10 z"
         style="fill:#e6e6e6;fill-opacity:1;fill-rule:evenodd;stroke:#000000;stroke-width:1px;stroke-linecap:butt;stroke-linejoin:miter;stroke-opacity:1" />
      <path
         sodipodi:nodetypes="csssssscc"
         inkscape:connector-curvature="0"
         id="path4161"
         d="m 262.85714,484.8622 c 0,0 -17.71559,-25.72958 -18.92857,-40 -0.99858,-11.74816 3.20852,-25.26663 8.21429,-33.92857 7.91787,-13.70103 24.53998,-25.47791 40.35714,-25 15.88015,0.47981 31.05128,13.70299 38.92857,27.5 7.22535,12.65514 7.01281,29.41109 3.57143,43.57143 -1.59135,6.54796 -6.19528,12.14418 -10.71429,17.14286 -4.04018,4.46903 -15,12.14286 -15,12.14286 z"
         style="fill:#4d4d4d;fill-rule:evenodd;stroke:#000000;stroke-width:1px;stroke-linecap:butt;stroke-linejoin:miter;stroke-opacity:1" />
      <path
         sodipodi:nodetypes="cccc"
         inkscape:connector-curvature="0"
         id="path4148"
         d="m 265,481.29077 13.57143,77.14286 27.94643,-74.64286 z"
         style="fill:#de8787;fill-rule:evenodd;stroke:#000000;stroke-width:1px;stroke-linecap:butt;stroke-linejoin:miter;stroke-opacity:1" />
      <path
         sodipodi:nodetypes="cccccccccccccc"
         inkscape:connector-curvature="0"
         id="path4149"
         d="m 264.91251,468.99911 -2.77792,13.63706 2.77792,7.3236 12.87944,76.01398 30.80965,-78.28682 4.04061,-11.86929 -2.77792,-1.51523 -3.28299,9.34391 -3.283,4.04061 -23.99112,67.68022 -11.11168,-71.72083 -3.03046,-2.27284 1.26269,-7.57615 z"
         style="fill:#e6e6e6;fill-opacity:1;fill-rule:evenodd;stroke:#000000;stroke-width:1px;stroke-linecap:butt;stroke-linejoin:miter;stroke-opacity:1" />
      <path
         sodipodi:nodetypes="ccccscc"
         inkscape:connector-curvature="0"
         id="path4147"
         d="m 266.1752,467.48388 14.39467,68.69038 27.7792,-63.89216 -2.77792,-1.26269 c 0,0 -2.09924,-21.16563 -14.89975,-22.72843 -13.56819,-1.65652 -19.44544,20.20305 -19.44544,20.20305 z"
         style="fill:#e6e6e6;fill-opacity:1;fill-rule:evenodd;stroke:#000000;stroke-width:1px;stroke-linecap:butt;stroke-linejoin:miter;stroke-opacity:1" />
      <path
         sodipodi:nodetypes="ccsc"
         inkscape:connector-curvature="0"
         id="path4151"
         d="M 263.90235,458.64505 258.34651,435.159 c 0,0 -7.11107,7.89226 -5.05076,14.14213 2.41165,7.31564 10.6066,9.34392 10.6066,9.34392 z"
         style="fill:#aa0000;fill-rule:evenodd;stroke:#000000;stroke-width:1px;stroke-linecap:butt;stroke-linejoin:miter;stroke-opacity:1" />
      <path
         sodipodi:nodetypes="ccsc"
         inkscape:connector-curvature="0"
         id="path4153"
         d="m 322.23866,442.73514 -9.34391,21.46574 c 0,0 10.20899,-0.37735 12.87945,-6.56599 3.32281,-7.7004 -3.53554,-14.89975 -3.53554,-14.89975 z"
         style="fill:#aa0000;fill-opacity:1;fill-rule:evenodd;stroke:#000000;stroke-width:1px;stroke-linecap:butt;stroke-linejoin:miter;stroke-opacity:1" />
      <path
         inkscape:transform-center-y="0.071565557"
         inkscape:transform-center-x="0.88325709"
         style="fill:#000000;fill-rule:evenodd;stroke:#000000;stroke-width:0.39638904px;stroke-linecap:butt;stroke-linejoin:miter;stroke-opacity:1"
         d="m 261.8099,451.87459 -2.20228,-9.30961 c 0,0 -2.81875,3.12841 -2.00207,5.60578 0.95596,2.89984 4.20435,3.70383 4.20435,3.70383 z"
         id="path4157"
         inkscape:connector-curvature="0"
         sodipodi:nodetypes="ccsc" />
      <path
         style="fill:#000000;fill-rule:evenodd;stroke:#000000;stroke-width:0.44299814px;stroke-linecap:butt;stroke-linejoin:miter;stroke-opacity:1"
         d="m 319.99494,448.48916 -4.13934,9.50928 c 0,0 4.52256,-0.16716 5.70557,-2.90872 1.472,-3.41126 -1.56623,-6.60056 -1.56623,-6.60056 z"
         id="path4159"
         inkscape:connector-curvature="0"
         sodipodi:nodetypes="ccsc" />
      <path
         inkscape:connector-curvature="0"
         id="path4169"
         d="m 114.65231,346.26558 -28.789344,-14.14214 -62.124381,11.61675 -80.307128,-17.17259 9.59645,13.63706 44.9517879,18.68782 4.5456865,14.64721 32.8299576,0 7.576144,11.61676 23.738585,3.53553 25.253814,14.14214 9.091368,0.50507 6.06092,7.57615 14.64721,5.05076 1.51523,10.10153 23.23351,13.63706 -0.50508,14.64721 29.29443,7.07107 6.06091,-7.07107 -28.78935,-33.84011 -4.54568,-40.4061 -46.9721,-24.24367 z"
         style="fill:#e6e6e6;fill-rule:evenodd;stroke:#000000;stroke-width:1px;stroke-linecap:butt;stroke-linejoin:miter;stroke-opacity:1" />
      <path
         inkscape:connector-curvature="0"
         id="path4171"
         d="m 472.24632,413.9458 24.74873,5.55583 -60.10407,10.10153 -11.61676,25.25381 -39.90102,29.29443 10.6066,20.20305 21.71828,-5.55584 12.6269,-18.68782 13.13199,-5.55584 13.63706,-6.56599 17.67767,-3.03046 5.55584,-7.07107 14.14213,4.54569 10.6066,-7.57615 16.16244,6.566 10.60661,-5.55584 29.29442,17.17259 6.56599,-9.59645 9.09137,-3.53553 0.50508,-9.59645 16.16244,-3.03046 -2.0203,-9.59645 21.2132,-5.05076 -41.92133,-2.02031 -59.599,-25.75889 -38.89087,1.01016 z"
         style="fill:#e6e6e6;fill-opacity:1;fill-rule:evenodd;stroke:#000000;stroke-width:1px;stroke-linecap:butt;stroke-linejoin:miter;stroke-opacity:1" />
      <g
         transform="translate(-2.8571429,-1.7857143)"
         id="g4176">
        <path
           style="fill:#000000;fill-rule:evenodd;stroke:#000000;stroke-width:1px;stroke-linecap:butt;stroke-linejoin:miter;stroke-opacity:1"
           d="m 211.37442,651.33164 0.25254,12.12183 6.56599,-14.14213 -2.77792,-23.48605 z"
           id="path4170"
           inkscape:connector-curvature="0"
           sodipodi:nodetypes="ccccc" />
        <path
           style="fill:#000000;fill-rule:evenodd;stroke:#000000;stroke-width:1px;stroke-linecap:butt;stroke-linejoin:miter;stroke-opacity:1"
           d="m 198.49498,671.5347 c 0,0 3.65712,6.2274 6.31345,8.58629 2.1704,1.92738 7.57614,4.29315 7.57614,4.29315 0,0 -4.40898,-4.08156 -5.3033,-6.81853 -0.88934,-2.72172 0.25254,-8.5863 0.25254,-8.5863 l -5.3033,-19.95051 z"
           id="path4168"
           inkscape:connector-curvature="0"
           sodipodi:nodetypes="cscsccc" />
        <path
           style="fill:#2b1100;fill-rule:evenodd;stroke:#000000;stroke-width:1px;stroke-linecap:butt;stroke-linejoin:miter;stroke-opacity:1"
           d="m 205.06097,574.05498 c 0,0 -10.55328,23.6846 -12.12183,36.36549 -1.36796,11.05923 1.48903,22.23981 2.52538,33.33503 0.8507,9.10768 3.03045,27.27412 3.03045,27.27412 0,0 0.50382,-6.63282 3.03046,-7.07107 3.16917,-0.5497 6.56599,7.07107 6.56599,7.07107 l 0.50508,-26.26397 2.52538,7.57615 c 0,0 0.25881,-10.71649 4.04061,-10.6066 3.35311,0.0974 3.03046,9.59644 3.03046,9.59644 0,0 2.18132,-29.13456 6.56599,-42.93148 1.93835,-6.09925 8.5863,-17.17259 8.5863,-17.17259 z"
           id="path4154"
           inkscape:connector-curvature="0"
           sodipodi:nodetypes="csscscccscscc" />
        <path
           style="fill:none;fill-rule:evenodd;stroke:#000000;stroke-width:1px;stroke-linecap:butt;stroke-linejoin:miter;stroke-opacity:1"
           d="m 213.57143,602.00506 -5.1046,43.53182"
           id="path4158"
           inkscape:connector-curvature="0"
           sodipodi:nodetypes="cc" />
        <path
           style="fill:none;fill-rule:evenodd;stroke:#000000;stroke-width:1px;stroke-linecap:butt;stroke-linejoin:miter;stroke-opacity:1"
           d="m 202.14286,603.79078 -3.57143,17.85714 -2.14286,22.5"
           id="path4160"
           inkscape:connector-curvature="0" />
      </g>
      <g
         id="g4183">
        <path
           style="fill:#000000;fill-rule:evenodd;stroke:#000000;stroke-width:1px;stroke-linecap:butt;stroke-linejoin:miter;stroke-opacity:1"
           d="m 339.15872,624.5626 c 0,0 -6.69736,7.23247 -8.33377,11.8693 -1.93321,5.47786 -1.01014,17.17259 -1.01014,17.17259 l 9.09137,-16.66752 z"
           id="path4172"
           inkscape:connector-curvature="0"
           sodipodi:nodetypes="csccc" />
        <path
           style="fill:#000000;fill-rule:evenodd;stroke:#000000;stroke-width:1px;stroke-linecap:butt;stroke-linejoin:miter;stroke-opacity:1"
           d="m 343.7044,657.14002 c 0,0 -3.83275,7.97405 -6.31345,11.61676 -1.91709,2.8151 -6.56599,7.82868 -6.56599,7.82868 0,0 7.20346,-3.59906 10.10152,-6.31346 3.78534,-3.54546 9.09138,-12.6269 9.09138,-12.6269 z"
           id="path4174"
           inkscape:connector-curvature="0"
           sodipodi:nodetypes="cscscc" />
        <path
           style="fill:#2b1100;fill-rule:evenodd;stroke:#000000;stroke-width:1px;stroke-linecap:butt;stroke-linejoin:miter;stroke-opacity:1"
           d="m 344.46202,596.78341 -15.15229,41.92133 c 0,0 3.82934,-8.7696 7.07107,-7.57615 3.47942,1.28095 0.50507,11.11168 0.50507,11.11168 l 10.60661,-16.66752 4.04061,9.09138 -13.63706,27.77919 c 0,0 5.82358,-3.06906 8.08122,-1.51523 1.55056,1.06717 1.01015,5.55584 1.01015,5.55584 0,0 8.79096,-14.79423 13.13198,-22.22335 4.41436,-7.55463 10.74018,-14.31189 13.13199,-22.72844 3.08484,-10.85524 2.79033,-24.79186 0.29586,-32.76868 -1.54794,-4.95005 -11.91262,-10.1628 -11.91262,-10.1628 z"
           id="path4156"
           inkscape:connector-curvature="0"
           sodipodi:nodetypes="ccsccccscssscc" />
        <path
           style="fill:none;fill-rule:evenodd;stroke:#000000;stroke-width:1px;stroke-linecap:butt;stroke-linejoin:miter;stroke-opacity:1"
           d="m 347.33412,626.85712 10.71428,-24.28571 -6.61983,32.35951"
           id="path4164"
           inkscape:connector-curvature="0"
           sodipodi:nodetypes="ccc" />
        <path
           style="fill:none;fill-rule:evenodd;stroke:#000000;stroke-width:1px;stroke-linecap:butt;stroke-linejoin:miter;stroke-opacity:1"
           d="M 370.71429,604.14792 359.28571,644.8622"
           id="path4166"
           inkscape:connector-curvature="0" />
      </g>
    </g>
  </g>
</svg>
